<svg width="24" height="24" viewBox="0 0 24 24" fill="none" xmlns="http://www.w3.org/2000/svg">
  <path d="M12 24C5.38125 24 0 18.6187 0 12C0 5.38125 5.38125 0 12 0C18.6187 0 24 5.38125 24 12C24 18.6187 18.6187 24 12 24Z" fill="#8A92C8" fill-opacity="0.2"/>
  <path fill-rule="evenodd" clip-rule="evenodd" d="M11.7945 3.28125L6.86328 11.475L11.7945 9.225V3.28125ZM12.2257 3.28125L17.1382 11.475L12.2257 9.225V3.28125ZM12.2257 19.9874V15.8624L17.3257 12.7874L12.2257 19.9874ZM12.2257 9.6936V14.7749L17.1007 11.9249L12.2257 9.6936ZM11.7944 9.6936V14.7749L6.90063 11.9249L11.7944 9.6936ZM11.7758 19.9874V15.8624L6.67578 12.7874L11.7758 19.9874Z" fill="#8A92C8"/>
</svg>
