<svg width="24" height="24" viewBox="0 0 24 24" fill="none" xmlns="http://www.w3.org/2000/svg">
  <path d="M12 24C5.38125 24 0 18.6187 0 12C0 5.38125 5.38125 0 12 0C18.6187 0 24 5.38125 24 12C24 18.6187 18.6187 24 12 24Z" fill="#2775C9" fill-opacity="0.2"/>
  <path d="M11.3276 7.61915V6.88149C11.3276 6.49008 11.6285 6.17278 11.9996 6.17278C12.3707 6.17278 12.6716 6.49008 12.6716 6.88149V7.6166C13.8876 7.80969 14.7213 8.53883 14.9439 9.57774C14.9921 9.80306 14.8581 10.027 14.6444 10.0779C14.6157 10.0847 14.5864 10.0882 14.557 10.0882L14.1935 10.0882C13.8993 10.0882 13.6316 9.90898 13.5064 9.62824C13.2746 9.10846 12.725 8.80917 11.9932 8.80917C11.078 8.80917 10.4604 9.28288 10.4604 9.99344C10.4604 10.5619 10.8702 10.8935 11.864 11.1422L12.796 11.3672C14.4411 11.7639 15.1373 12.4804 15.1373 13.7535C15.1373 15.1642 14.2035 16.1183 12.6716 16.3433V17.1973C12.6716 17.5887 12.3707 17.906 11.9996 17.906C11.6285 17.906 11.3276 17.5887 11.3276 17.1973V16.3567C9.97073 16.1839 9.05431 15.4265 8.83905 14.2677C8.80363 14.077 8.92148 13.8921 9.10228 13.8548C9.1234 13.8504 9.14488 13.8482 9.16641 13.8482V13.8483L9.7183 13.8483C9.96809 13.8483 10.1956 13.9999 10.3029 14.2378C10.5569 14.8013 11.2071 15.151 12.0212 15.151C12.9982 15.151 13.6775 14.6417 13.6775 13.9312C13.6775 13.3153 13.2621 12.96 12.2402 12.7054L11.1903 12.4449C9.69679 12.0837 8.98935 11.3258 8.98935 10.1059C8.98935 8.79238 9.92952 7.84786 11.3276 7.61915ZM3.59961 12.0051C3.59961 8.09601 6.01902 4.78056 9.37054 3.62128C9.58221 3.54806 9.81007 3.66967 9.8795 3.8929C9.8928 3.93569 9.89958 3.98044 9.89958 4.02547L9.89959 4.27515C9.89959 4.65575 9.68069 4.99831 9.34619 5.14117C6.76764 6.24241 4.94961 8.90072 4.94961 12.0051C4.94961 15.108 6.76589 17.7653 9.34246 18.8675C9.67925 19.0115 9.89959 19.3566 9.89959 19.7399L9.8996 19.9481C9.8996 20.1977 9.70776 20.4 9.47111 20.4C9.42512 20.4 9.37943 20.3922 9.33579 20.3769C6.00231 19.2067 3.59961 15.9007 3.59961 12.0051ZM20.3996 12.0051C20.3996 15.8915 18.0083 19.1911 14.6871 20.3685C14.4538 20.4512 14.2012 20.3188 14.1228 20.0728C14.1074 20.0246 14.0996 19.974 14.0996 19.9231L14.0996 19.7563C14.0996 19.3637 14.3249 19.0103 14.6695 18.862C17.2393 17.7565 19.0496 15.1029 19.0496 12.0051C19.0496 8.91026 17.2427 6.25875 14.6768 5.15136C14.3277 5.00071 14.0996 4.64239 14.0996 4.2446L14.0996 4.09249C14.0996 3.83086 14.3007 3.61876 14.5488 3.61876C14.5976 3.61876 14.646 3.62713 14.6922 3.64355C18.0107 4.82256 20.3996 8.12076 20.3996 12.0051Z" fill="#2775C9"/>
</svg>
